M48
; DRILL file {KiCad 7.0.9} date Sunday, February 09, 2025 at 06:05:05 PM
; FORMAT={-:-/ absolute / inch / decimal}
; #@! TF.CreationDate,2025-02-09T18:05:05-08:00
; #@! TF.GenerationSoftware,Kicad,Pcbnew,7.0.9
; #@! TF.FileFunction,MixedPlating,1,2
FMAT,2
INCH
; #@! TA.AperFunction,Plated,PTH,ComponentDrill
T1C0.0118
; #@! TA.AperFunction,Plated,PTH,ComponentDrill
T2C0.0500
; #@! TA.AperFunction,NonPlated,NPTH,ComponentDrill
T3C0.0630
; #@! TA.AperFunction,NonPlated,NPTH,ComponentDrill
T4C0.0670
; #@! TA.AperFunction,NonPlated,NPTH,ComponentDrill
T5C0.1350
; #@! TA.AperFunction,NonPlated,NPTH,ComponentDrill
T6C0.1470
%
G90
G05
T1
X1.3386Y0.5906
X1.4173Y0.5709
X1.4961Y0.5512
T2
X0.0Y1.5709
X0.0Y0.9016
X0.0Y0.2323
X0.1969Y1.4882
X0.1969Y0.8189
X0.1969Y0.1496
X0.7087Y2.0827
X0.7087Y1.4134
X0.7087Y0.7441
X0.9055Y2.0
X0.9055Y1.3307
X0.9055Y0.6614
X1.4173Y2.2992
X1.4173Y1.6299
X1.4173Y0.9606
X1.6142Y2.2165
X1.6142Y1.5472
X1.6142Y0.878
X1.9291Y-0.8858
X2.126Y2.0827
X2.126Y1.4134
X2.126Y0.7441
X2.126Y-0.9685
X2.3228Y2.0
X2.3228Y1.3307
X2.3228Y0.6614
X2.6378Y-0.8858
X2.8346Y1.9843
X2.8346Y1.315
X2.8346Y0.6457
X2.8346Y-0.9685
X3.0315Y1.9016
X3.0315Y1.2323
X3.0315Y0.563
T3
X-0.189Y1.5276
X-0.189Y-0.189
X1.937Y2.0394
X3.0236Y-0.9252
T4
X-0.2165Y1.3386
X-0.2165Y0.6693
X-0.2165Y0.0
X0.2165Y1.3386
X0.2165Y0.6693
X0.2165Y0.0
X0.4921Y1.8504
X0.4921Y1.1811
X0.4921Y0.5118
X0.9252Y1.8504
X0.9252Y1.1811
X0.9252Y0.5118
X1.2008Y2.0669
X1.2008Y1.3976
X1.2008Y0.7283
X1.6339Y2.0669
X1.6339Y1.3976
X1.6339Y0.7283
X1.9094Y1.8504
X1.9094Y1.1811
X1.9094Y0.5118
X1.9094Y-0.7362
X2.3425Y1.8504
X2.3425Y1.1811
X2.3425Y0.5118
X2.3425Y-0.7362
X2.6181Y1.752
X2.6181Y1.0827
X2.6181Y0.4134
X2.6181Y-0.7362
X3.0512Y1.752
X3.0512Y1.0827
X3.0512Y0.4134
X3.0512Y-0.7362
T5
X0.0Y1.3386
X0.0Y0.6693
X0.0Y0.0
X0.7087Y1.8504
X0.7087Y1.1811
X0.7087Y0.5118
X1.4173Y2.0669
X1.4173Y1.3976
X1.4173Y0.7283
X2.126Y1.8504
X2.126Y1.1811
X2.126Y0.5118
X2.126Y-0.7362
X2.8346Y1.752
X2.8346Y1.0827
X2.8346Y0.4134
X2.8346Y-0.7362
T6
X0.1024Y1.1024
X2.1024Y-0.5197
T0
M30
