%TF.GenerationSoftware,KiCad,Pcbnew,7.0.9*%
%TF.CreationDate,2025-02-09T18:04:29-08:00*%
%TF.ProjectId,Dyad_left_routes,44796164-5f6c-4656-9674-5f726f757465,v1.0.0*%
%TF.SameCoordinates,Original*%
%TF.FileFunction,Profile,NP*%
%FSLAX46Y46*%
G04 Gerber Fmt 4.6, Leading zero omitted, Abs format (unit mm)*
G04 Created by KiCad (PCBNEW 7.0.9) date 2025-02-09 18:04:29*
%MOMM*%
%LPD*%
G01*
G04 APERTURE LIST*
%TA.AperFunction,Profile*%
%ADD10C,0.150000*%
%TD*%
G04 APERTURE END LIST*
D10*
X43300000Y55300000D02*
G75*
G03*
X44300000Y54300000I1000000J0D01*
G01*
X-7300000Y-6300000D02*
X-7300000Y40300000D01*
X46402913Y-25639393D02*
G75*
G03*
X7300000Y-7300000I-39102913J-32517557D01*
G01*
X46402916Y-25639390D02*
G75*
G03*
X47171794Y-26000001I768884J639390D01*
G01*
X28700000Y55300000D02*
X28700000Y58800000D01*
X29700000Y59800000D02*
G75*
G03*
X28700000Y58800000I0J-1000000D01*
G01*
X61300000Y53300000D02*
G75*
G03*
X60300000Y54300000I-1000000J0D01*
G01*
X-6300000Y41300000D02*
G75*
G03*
X-7300000Y40300000I-1J-999999D01*
G01*
X79300000Y50800000D02*
G75*
G03*
X78300000Y51800000I-1000000J0D01*
G01*
X10700000Y42300000D02*
X10700000Y53300000D01*
X79300000Y50800000D02*
X79300000Y-25000000D01*
X43300000Y58800000D02*
G75*
G03*
X42300000Y59800000I-1000000J0D01*
G01*
X-6300000Y41300000D02*
X9700000Y41300000D01*
X78300000Y-26000000D02*
X47171794Y-26000000D01*
X62300000Y51800000D02*
X78300000Y51800000D01*
X78300000Y-26000000D02*
G75*
G03*
X79300000Y-25000000I0J1000000D01*
G01*
X7300000Y-7300000D02*
X-6300000Y-7300000D01*
X61300000Y53300000D02*
X61300000Y52800000D01*
X61300000Y52800000D02*
G75*
G03*
X62300000Y51800000I1000000J0D01*
G01*
X44300000Y54300000D02*
X60300000Y54300000D01*
X11700000Y54300000D02*
X27700000Y54300000D01*
X29700000Y59800000D02*
X42300000Y59800000D01*
X43300000Y58800000D02*
X43300000Y55300000D01*
X9700000Y41300000D02*
G75*
G03*
X10700000Y42300000I0J1000000D01*
G01*
X27700000Y54300000D02*
G75*
G03*
X28700000Y55300000I0J1000000D01*
G01*
X11700000Y54300000D02*
G75*
G03*
X10700000Y53300000I0J-1000000D01*
G01*
X-7300000Y-6300000D02*
G75*
G03*
X-6300000Y-7300000I999999J-1D01*
G01*
M02*
