%TF.GenerationSoftware,KiCad,Pcbnew,7.0.9*%
%TF.CreationDate,2025-02-09T18:02:53-08:00*%
%TF.ProjectId,Dyad_left_routes,44796164-5f6c-4656-9674-5f726f757465,v1.0.0*%
%TF.SameCoordinates,Original*%
%TF.FileFunction,Copper,L1,Top*%
%TF.FilePolarity,Positive*%
%FSLAX46Y46*%
G04 Gerber Fmt 4.6, Leading zero omitted, Abs format (unit mm)*
G04 Created by KiCad (PCBNEW 7.0.9) date 2025-02-09 18:02:53*
%MOMM*%
%LPD*%
G01*
G04 APERTURE LIST*
%TA.AperFunction,ComponentPad*%
%ADD10C,0.600000*%
%TD*%
%TA.AperFunction,ComponentPad*%
%ADD11C,2.032000*%
%TD*%
%TA.AperFunction,Conductor*%
%ADD12C,0.250000*%
%TD*%
G04 APERTURE END LIST*
D10*
%TO.P,,1*%
%TO.N,C2v*%
X34000000Y15000000D03*
%TD*%
D11*
%TO.P,S9,1*%
%TO.N,C2v*%
X41000000Y56300000D03*
%TO.P,S9,2*%
%TO.N,R0M*%
X36000000Y58400000D03*
%TD*%
%TO.P,S1,1*%
%TO.N,C4v*%
X5000000Y3800000D03*
%TO.P,S1,2*%
%TO.N,R2P*%
X0Y5900000D03*
%TD*%
%TO.P,S6,1*%
%TO.N,C3v*%
X23000000Y50800000D03*
%TO.P,S6,2*%
%TO.N,R0R*%
X18000000Y52900000D03*
%TD*%
D10*
%TO.P,,1*%
%TO.N,C4v*%
X38000000Y14000000D03*
%TD*%
D11*
%TO.P,S10,1*%
%TO.N,C1*%
X59000000Y16800000D03*
%TO.P,S10,2*%
%TO.N,R2I*%
X54000000Y18900000D03*
%TD*%
%TO.P,S5,1*%
%TO.N,C3v*%
X23000000Y33800000D03*
%TO.P,S5,2*%
%TO.N,R1R*%
X18000000Y35900000D03*
%TD*%
%TO.P,S3,1*%
%TO.N,C4v*%
X5000000Y37800000D03*
%TO.P,S3,2*%
%TO.N,R0P*%
X0Y39900000D03*
%TD*%
%TO.P,S15,1*%
%TO.N,C0*%
X77000000Y48300000D03*
%TO.P,S15,2*%
%TO.N,R0i*%
X72000000Y50400000D03*
%TD*%
%TO.P,S14,1*%
%TO.N,C0*%
X77000000Y31300000D03*
%TO.P,S14,2*%
%TO.N,R1i*%
X72000000Y33400000D03*
%TD*%
%TO.P,S13,1*%
%TO.N,C0*%
X77000000Y14300000D03*
%TO.P,S13,2*%
%TO.N,R2i*%
X72000000Y16400000D03*
%TD*%
%TO.P,S4,1*%
%TO.N,C3v*%
X23000000Y16800000D03*
%TO.P,S4,2*%
%TO.N,R2R*%
X18000000Y18900000D03*
%TD*%
%TO.P,S16,1*%
%TO.N,C0*%
X67000000Y-22500000D03*
%TO.P,S16,2*%
%TO.N,R3i*%
X72000000Y-24600000D03*
%TD*%
%TO.P,S2,1*%
%TO.N,C4v*%
X5000000Y20800000D03*
%TO.P,S2,2*%
%TO.N,R1P*%
X0Y22900000D03*
%TD*%
%TO.P,S7,1*%
%TO.N,C2v*%
X41000000Y22300000D03*
%TO.P,S7,2*%
%TO.N,R2M*%
X36000000Y24400000D03*
%TD*%
%TO.P,S17,1*%
%TO.N,C1*%
X49000000Y-22500000D03*
%TO.P,S17,2*%
%TO.N,R3I*%
X54000000Y-24600000D03*
%TD*%
%TO.P,S8,1*%
%TO.N,C2v*%
X41000000Y39300000D03*
%TO.P,S8,2*%
%TO.N,R1M*%
X36000000Y41400000D03*
%TD*%
D10*
%TO.P,,1*%
%TO.N,C3v*%
X36000000Y14500000D03*
%TD*%
D11*
%TO.P,S12,1*%
%TO.N,C1*%
X59000000Y50800000D03*
%TO.P,S12,2*%
%TO.N,R0I*%
X54000000Y52900000D03*
%TD*%
%TO.P,S11,1*%
%TO.N,C1*%
X59000000Y33800000D03*
%TO.P,S11,2*%
%TO.N,R1I*%
X54000000Y35900000D03*
%TD*%
D12*
%TO.N,C4v*%
X20624592Y16338662D02*
X16353020Y16338662D01*
X4988806Y3788662D02*
X3288806Y5488662D01*
X24870913Y14156555D02*
X24081699Y14945769D01*
X3288806Y9938662D02*
X3288806Y5788662D01*
X21845913Y15531555D02*
X21331699Y16045769D01*
X3288806Y19088662D02*
X3288806Y18038662D01*
X37863806Y13863662D02*
X25888806Y13863662D01*
X25888806Y13863662D02*
X25578020Y13863662D01*
X4988806Y20788662D02*
X3288806Y19088662D01*
X3581699Y24131555D02*
X5095913Y25645769D01*
X37988806Y13988662D02*
X37863806Y13863662D01*
X3288806Y19088662D02*
X3288806Y23424448D01*
X5095913Y29931555D02*
X3581699Y31445769D01*
X15645913Y16631555D02*
X11781699Y20495769D01*
X3288806Y18038662D02*
X3288806Y9938662D01*
X3288806Y32152876D02*
X3288806Y35674448D01*
X5388806Y26352876D02*
X5388806Y29224448D01*
X11074592Y20788662D02*
X4988806Y20788662D01*
X3581699Y36381555D02*
X4988806Y37788662D01*
X23374592Y15238662D02*
X22553020Y15238662D01*
X3288806Y5488662D02*
X3288806Y5788662D01*
X3288802Y32152876D02*
G75*
G03*
X3581700Y31445770I999998J4D01*
G01*
X24081695Y14945765D02*
G75*
G03*
X23374592Y15238662I-707095J-707065D01*
G01*
X3581699Y36381555D02*
G75*
G03*
X3288806Y35674448I707101J-707105D01*
G01*
X21331695Y16045765D02*
G75*
G03*
X20624592Y16338662I-707095J-707065D01*
G01*
X5388806Y29224448D02*
G75*
G03*
X5095913Y29931555I-999996J2D01*
G01*
X5095910Y25645772D02*
G75*
G03*
X5388806Y26352876I-707100J707108D01*
G01*
X3581699Y24131555D02*
G75*
G03*
X3288806Y23424448I707101J-707105D01*
G01*
X11781695Y20495765D02*
G75*
G03*
X11074592Y20788662I-707095J-707065D01*
G01*
X24870895Y14156537D02*
G75*
G03*
X25578020Y13863662I707105J707163D01*
G01*
X15645895Y16631537D02*
G75*
G03*
X16353020Y16338662I707105J707163D01*
G01*
X21845895Y15531537D02*
G75*
G03*
X22553020Y15238662I707105J707163D01*
G01*
%TO.N,C3v*%
X29128020Y14363662D02*
X35863806Y14363662D01*
X21288806Y31674448D02*
X21288806Y31038662D01*
X22988806Y33788662D02*
X21581699Y32381555D01*
X22988806Y16788662D02*
X21288806Y18488662D01*
X21288806Y48674448D02*
X21288806Y31038662D01*
X21288806Y31038662D02*
X21288806Y18788662D01*
X21288806Y18488662D02*
X21288806Y18788662D01*
X26581699Y16495769D02*
X28420913Y14656555D01*
X22988806Y50788662D02*
X21581699Y49381555D01*
X35863806Y14363662D02*
X35988806Y14488662D01*
X25874592Y16788662D02*
X22988806Y16788662D01*
X21581724Y49381530D02*
G75*
G03*
X21288806Y48674448I707076J-707130D01*
G01*
X26581695Y16495765D02*
G75*
G03*
X25874592Y16788662I-707095J-707065D01*
G01*
X21581724Y32381530D02*
G75*
G03*
X21288806Y31674448I707076J-707130D01*
G01*
X28420895Y14656537D02*
G75*
G03*
X29128020Y14363662I707105J707163D01*
G01*
%TO.N,C2v*%
X40988806Y22288662D02*
X39288806Y23988662D01*
X34245913Y22145769D02*
X33231699Y21131555D01*
X39288806Y36538662D02*
X39288806Y24288662D01*
X33231699Y15745769D02*
X33988806Y14988662D01*
X40988806Y39288662D02*
X39581699Y37881555D01*
X32938806Y20424448D02*
X32938806Y16452876D01*
X39288806Y37174448D02*
X39288806Y36538662D01*
X40988806Y56288662D02*
X39581699Y54881555D01*
X39288806Y54174448D02*
X39288806Y36538662D01*
X39288806Y23988662D02*
X39288806Y24288662D01*
X39288806Y24288662D02*
X37731699Y22731555D01*
X37024592Y22438662D02*
X34953020Y22438662D01*
X33231674Y21131580D02*
G75*
G03*
X32938806Y20424448I707126J-707080D01*
G01*
X39581724Y37881530D02*
G75*
G03*
X39288806Y37174448I707076J-707130D01*
G01*
X39581724Y54881530D02*
G75*
G03*
X39288806Y54174448I707076J-707130D01*
G01*
X32938787Y16452876D02*
G75*
G03*
X33231699Y15745769I1000013J24D01*
G01*
X37024592Y22438679D02*
G75*
G03*
X37731699Y22731555I8J1000021D01*
G01*
X34953020Y22438659D02*
G75*
G03*
X34245913Y22145769I-20J-999959D01*
G01*
%TO.N,C1*%
X57238806Y48649448D02*
X57238806Y31013662D01*
X68374592Y-20611338D02*
X57603020Y-20611338D01*
X77438806Y2538052D02*
X77438806Y-14660728D01*
X75131699Y5259373D02*
X77145913Y3245159D01*
X74895913Y-21717835D02*
X74845303Y-21768445D01*
X74838806Y12174448D02*
X74838806Y5966480D01*
X63781699Y16495769D02*
X66195913Y14081555D01*
X54874592Y-22511338D02*
X48988806Y-22511338D01*
X77145913Y-15367835D02*
X75481699Y-17032049D01*
X58988806Y16788662D02*
X63074592Y16788662D01*
X58938806Y50763662D02*
X57531699Y49356555D01*
X57238806Y31013662D02*
X57238806Y18763662D01*
X58938806Y16763662D02*
X57238806Y18463662D01*
X58938806Y33763662D02*
X57531699Y32356555D01*
X74138196Y-22061338D02*
X70653020Y-22061338D01*
X75188806Y-17739156D02*
X75188806Y-21010728D01*
X66903020Y13788662D02*
X73224592Y13788662D01*
X57238806Y31649448D02*
X57238806Y31013662D01*
X56895913Y-20904231D02*
X55581699Y-22218445D01*
X73931699Y13495769D02*
X74545913Y12881555D01*
X69945913Y-21768445D02*
X69081699Y-20904231D01*
X57238806Y18463662D02*
X57238806Y18763662D01*
X57603020Y-20611341D02*
G75*
G03*
X56895913Y-20904231I-20J-999959D01*
G01*
X74838790Y5966480D02*
G75*
G03*
X75131699Y5259373I1000010J20D01*
G01*
X69945895Y-21768463D02*
G75*
G03*
X70653020Y-22061338I707105J707163D01*
G01*
X74895900Y-21717822D02*
G75*
G03*
X75188806Y-21010728I-707100J707122D01*
G01*
X54874592Y-22511321D02*
G75*
G03*
X55581699Y-22218445I8J1000021D01*
G01*
X74838767Y12174448D02*
G75*
G03*
X74545912Y12881554I-999967J52D01*
G01*
X77438770Y2538052D02*
G75*
G03*
X77145913Y3245159I-999970J48D01*
G01*
X75481722Y-17032072D02*
G75*
G03*
X75188806Y-17739156I707078J-707128D01*
G01*
X63781695Y16495765D02*
G75*
G03*
X63074592Y16788662I-707095J-707065D01*
G01*
X74138196Y-22061324D02*
G75*
G03*
X74845303Y-21768445I4J1000024D01*
G01*
X66195895Y14081537D02*
G75*
G03*
X66903020Y13788662I707105J707163D01*
G01*
X57531724Y49356530D02*
G75*
G03*
X57238806Y48649448I707076J-707130D01*
G01*
X57531724Y32356530D02*
G75*
G03*
X57238806Y31649448I707076J-707130D01*
G01*
X69081695Y-20904235D02*
G75*
G03*
X68374592Y-20611338I-707095J-707065D01*
G01*
X77145900Y-15367822D02*
G75*
G03*
X77438806Y-14660728I-707100J707122D01*
G01*
X73931695Y13495765D02*
G75*
G03*
X73224592Y13788662I-707095J-707065D01*
G01*
%TO.N,C0*%
X75288806Y12174448D02*
X75288806Y6152876D01*
X75238806Y15963662D02*
X75238806Y16263662D01*
X75238806Y29149448D02*
X75238806Y28513662D01*
X74324592Y-22511338D02*
X66988806Y-22511338D01*
X75238806Y28513662D02*
X75238806Y16263662D01*
X76938806Y14263662D02*
X75238806Y15963662D01*
X76938806Y31263662D02*
X75531699Y29856555D01*
X77595913Y-15554231D02*
X75931699Y-17218445D01*
X75238806Y46149448D02*
X75238806Y28513662D01*
X76988806Y14288662D02*
X75581699Y12881555D01*
X75581699Y5445769D02*
X77595913Y3431555D01*
X75638806Y-17925552D02*
X75638806Y-21197124D01*
X77888806Y2724448D02*
X77888806Y-14847124D01*
X76938806Y48263662D02*
X75531699Y46856555D01*
X75345913Y-21904231D02*
X75031699Y-22218445D01*
X75531674Y46856580D02*
G75*
G03*
X75238806Y46149448I707126J-707080D01*
G01*
X77888767Y2724448D02*
G75*
G03*
X77595912Y3431554I-999967J52D01*
G01*
X75345902Y-21904220D02*
G75*
G03*
X75638806Y-21197124I-707102J707120D01*
G01*
X75288787Y6152876D02*
G75*
G03*
X75581699Y5445769I1000013J24D01*
G01*
X75581674Y12881580D02*
G75*
G03*
X75288806Y12174448I707126J-707080D01*
G01*
X75931674Y-17218420D02*
G75*
G03*
X75638806Y-17925552I707126J-707080D01*
G01*
X77595902Y-15554220D02*
G75*
G03*
X77888806Y-14847124I-707102J707120D01*
G01*
X74324592Y-22511321D02*
G75*
G03*
X75031699Y-22218445I8J1000021D01*
G01*
X75531724Y29856530D02*
G75*
G03*
X75238806Y29149448I707076J-707130D01*
G01*
%TD*%
M02*
