0
SECTION
2
HEADER
9
$INSUNITS
70
4
0
ENDSEC
0
SECTION
2
TABLES
0
TABLE
2
LTYPE
0
LTYPE
72
65
70
64
2
CONTINUOUS
3
______
73
0
40
0
0
ENDTAB
0
TABLE
2
LAYER
0
ENDTAB
0
ENDSEC
0
SECTION
2
ENTITIES
0
LINE
8
0
10
116
20
-157.5
11
116
21
-108.5
0
LINE
8
0
10
117
20
-107.5
11
133
21
-107.5
0
LINE
8
0
10
134
20
-106.5
11
134
21
-95.5
0
LINE
8
0
10
135
20
-94.5
11
151
21
-94.5
0
LINE
8
0
10
152
20
-93.5
11
152
21
-90
0
LINE
8
0
10
153
20
-89
11
169.75
21
-89
0
LINE
8
0
10
170.75
20
-90
11
170.75
21
-93.5
0
LINE
8
0
10
171.75
20
-94.5
11
187
21
-94.5
0
LINE
8
0
10
188
20
-95.5
11
188
21
-96
0
LINE
8
0
10
189
20
-97
11
205.75
21
-97
0
LINE
8
0
10
206.75
20
-98
11
206.75
21
-173.2
0
LINE
8
0
10
205.75
20
-174.2
11
170.2085698
21
-174.2
0
LINE
8
0
10
169.8088198
20
-174.1166242
11
134.1911802
21
-158.5833758
0
LINE
8
0
10
133.7914302
20
-158.5
11
117
21
-158.5
0
ARC
8
0
10
117
20
-108.5
40
1
50
90
51
131.4096209
0
ARC
8
0
10
117
20
-108.5
40
1
50
138.5903791
51
180
0
ARC
8
0
10
133
20
-106.5
40
1
50
270
51
0
0
ARC
8
0
10
135
20
-95.5
40
1
50
90
51
131.4096209
0
ARC
8
0
10
135
20
-95.5
40
1
50
138.5903791
51
180
0
ARC
8
0
10
151
20
-93.5
40
1
50
270
51
0
0
ARC
8
0
10
153
20
-90
40
1
50
90
51
131.4096209
0
ARC
8
0
10
153
20
-90
40
1
50
138.5903791
51
180
0
ARC
8
0
10
169.75
20
-90
40
1
50
0
51
90
0
ARC
8
0
10
171.75
20
-93.5
40
1
50
180
51
270
0
ARC
8
0
10
187
20
-95.5
40
1
50
0
51
41.4096209
0
ARC
8
0
10
187
20
-95.5
40
1
50
48.5903791
51
90
0
ARC
8
0
10
189
20
-96
40
1
50
180
51
270
0
ARC
8
0
10
205.75
20
-98
40
1
50
0
51
90
0
ARC
8
0
10
205.75
20
-173.2
40
1
50
270
51
0
0
ARC
8
0
10
170.2085698
20
-173.2
40
1
50
246.4374491
51
270
0
ARC
8
0
10
133.7914302
20
-159.5
40
1
50
66.4374491
51
90
0
ARC
8
0
10
117
20
-157.5
40
1
50
180
51
221.4096209
0
ARC
8
0
10
117
20
-157.5
40
1
50
228.5903791
51
270
0
LINE
8
0
10
116.3385622
20
-158.25
11
133.75
21
-158.25
0
LINE
8
0
10
133.75
20
-158.25
11
133.75
21
-141.75
0
LINE
8
0
10
133.75
20
-141.75
11
116.25
21
-141.75
0
LINE
8
0
10
116.25
20
-141.75
11
116.25
21
-158.1614378
0
LINE
8
0
10
116.25
20
-141.25
11
133.75
21
-141.25
0
LINE
8
0
10
133.75
20
-141.25
11
133.75
21
-124.75
0
LINE
8
0
10
133.75
20
-124.75
11
116.25
21
-124.75
0
LINE
8
0
10
116.25
20
-124.75
11
116.25
21
-141.25
0
LINE
8
0
10
116.25
20
-124.25
11
133.75
21
-124.25
0
LINE
8
0
10
133.75
20
-124.25
11
133.75
21
-107.75
0
LINE
8
0
10
133.75
20
-107.75
11
116.3385622
21
-107.75
0
LINE
8
0
10
116.25
20
-107.8385622
11
116.25
21
-124.25
0
LINE
8
0
10
134.25
20
-145.25
11
151.75
21
-145.25
0
LINE
8
0
10
151.75
20
-145.25
11
151.75
21
-128.75
0
LINE
8
0
10
151.75
20
-128.75
11
134.25
21
-128.75
0
LINE
8
0
10
134.25
20
-128.75
11
134.25
21
-145.25
0
LINE
8
0
10
134.25
20
-128.25
11
151.75
21
-128.25
0
LINE
8
0
10
151.75
20
-128.25
11
151.75
21
-111.75
0
LINE
8
0
10
151.75
20
-111.75
11
134.25
21
-111.75
0
LINE
8
0
10
134.25
20
-111.75
11
134.25
21
-128.25
0
LINE
8
0
10
134.25
20
-111.25
11
151.75
21
-111.25
0
LINE
8
0
10
151.75
20
-111.25
11
151.75
21
-94.75
0
LINE
8
0
10
151.75
20
-94.75
11
134.3385622
21
-94.75
0
LINE
8
0
10
134.25
20
-94.8385622
11
134.25
21
-111.25
0
LINE
8
0
10
152.25
20
-139.75
11
169.75
21
-139.75
0
LINE
8
0
10
169.75
20
-139.75
11
169.75
21
-123.25
0
LINE
8
0
10
169.75
20
-123.25
11
152.25
21
-123.25
0
LINE
8
0
10
152.25
20
-123.25
11
152.25
21
-139.75
0
LINE
8
0
10
152.25
20
-122.75
11
169.75
21
-122.75
0
LINE
8
0
10
169.75
20
-122.75
11
169.75
21
-106.25
0
LINE
8
0
10
169.75
20
-106.25
11
152.25
21
-106.25
0
LINE
8
0
10
152.25
20
-106.25
11
152.25
21
-122.75
0
LINE
8
0
10
152.25
20
-105.75
11
169.75
21
-105.75
0
LINE
8
0
10
169.75
20
-105.75
11
169.75
21
-89.25
0
LINE
8
0
10
169.75
20
-89.25
11
152.3385622
21
-89.25
0
LINE
8
0
10
152.25
20
-89.3385622
11
152.25
21
-105.75
0
LINE
8
0
10
170.25
20
-145.25
11
187.75
21
-145.25
0
LINE
8
0
10
187.75
20
-145.25
11
187.75
21
-128.75
0
LINE
8
0
10
187.75
20
-128.75
11
170.25
21
-128.75
0
LINE
8
0
10
170.25
20
-128.75
11
170.25
21
-145.25
0
LINE
8
0
10
170.25
20
-128.25
11
187.75
21
-128.25
0
LINE
8
0
10
187.75
20
-128.25
11
187.75
21
-111.75
0
LINE
8
0
10
187.75
20
-111.75
11
170.25
21
-111.75
0
LINE
8
0
10
170.25
20
-111.75
11
170.25
21
-128.25
0
LINE
8
0
10
170.25
20
-111.25
11
187.75
21
-111.25
0
LINE
8
0
10
187.75
20
-111.25
11
187.75
21
-94.8385622
0
LINE
8
0
10
187.6614378
20
-94.75
11
170.25
21
-94.75
0
LINE
8
0
10
170.25
20
-94.75
11
170.25
21
-111.25
0
LINE
8
0
10
188.25
20
-147.75
11
205.75
21
-147.75
0
LINE
8
0
10
205.75
20
-147.75
11
205.75
21
-131.25
0
LINE
8
0
10
205.75
20
-131.25
11
188.25
21
-131.25
0
LINE
8
0
10
188.25
20
-131.25
11
188.25
21
-147.75
0
LINE
8
0
10
188.25
20
-130.75
11
205.75
21
-130.75
0
LINE
8
0
10
205.75
20
-130.75
11
205.75
21
-114.25
0
LINE
8
0
10
205.75
20
-114.25
11
188.25
21
-114.25
0
LINE
8
0
10
188.25
20
-114.25
11
188.25
21
-130.75
0
LINE
8
0
10
188.25
20
-113.75
11
205.75
21
-113.75
0
LINE
8
0
10
205.75
20
-113.75
11
205.75
21
-97.25
0
LINE
8
0
10
205.75
20
-97.25
11
188.25
21
-97.25
0
LINE
8
0
10
188.25
20
-97.25
11
188.25
21
-113.75
0
LINE
8
0
10
187.75
20
-157.45
11
170.25
21
-157.45
0
LINE
8
0
10
170.25
20
-157.45
11
170.25
21
-173.95
0
LINE
8
0
10
170.25
20
-173.95
11
187.75
21
-173.95
0
LINE
8
0
10
187.75
20
-173.95
11
187.75
21
-157.45
0
LINE
8
0
10
205.75
20
-157.45
11
188.25
21
-157.45
0
LINE
8
0
10
188.25
20
-157.45
11
188.25
21
-173.95
0
LINE
8
0
10
188.25
20
-173.95
11
205.75
21
-173.95
0
LINE
8
0
10
205.75
20
-173.95
11
205.75
21
-157.45
0
ENDSEC
0
EOF