0
SECTION
2
HEADER
9
$INSUNITS
70
4
0
ENDSEC
0
SECTION
2
TABLES
0
TABLE
2
LTYPE
0
LTYPE
72
65
70
64
2
CONTINUOUS
3
______
73
0
40
0
0
ENDTAB
0
TABLE
2
LAYER
0
ENDTAB
0
ENDSEC
0
SECTION
2
ENTITIES
0
LINE
8
0
10
116.25
20
-158.25
11
133.75
21
-158.25
0
LINE
8
0
10
133.75
20
-158.25
11
133.75
21
-141.75
0
LINE
8
0
10
133.75
20
-141.75
11
116.25
21
-141.75
0
LINE
8
0
10
116.25
20
-141.75
11
116.25
21
-158.25
0
LINE
8
0
10
116.25
20
-141.25
11
133.75
21
-141.25
0
LINE
8
0
10
133.75
20
-141.25
11
133.75
21
-124.75
0
LINE
8
0
10
133.75
20
-124.75
11
116.25
21
-124.75
0
LINE
8
0
10
116.25
20
-124.75
11
116.25
21
-141.25
0
LINE
8
0
10
116.25
20
-124.25
11
133.75
21
-124.25
0
LINE
8
0
10
133.75
20
-124.25
11
133.75
21
-107.75
0
LINE
8
0
10
133.75
20
-107.75
11
116.25
21
-107.75
0
LINE
8
0
10
116.25
20
-107.75
11
116.25
21
-124.25
0
LINE
8
0
10
134.25
20
-145.25
11
151.75
21
-145.25
0
LINE
8
0
10
151.75
20
-145.25
11
151.75
21
-128.75
0
LINE
8
0
10
151.75
20
-128.75
11
134.25
21
-128.75
0
LINE
8
0
10
134.25
20
-128.75
11
134.25
21
-145.25
0
LINE
8
0
10
134.25
20
-128.25
11
151.75
21
-128.25
0
LINE
8
0
10
151.75
20
-128.25
11
151.75
21
-111.75
0
LINE
8
0
10
151.75
20
-111.75
11
134.25
21
-111.75
0
LINE
8
0
10
134.25
20
-111.75
11
134.25
21
-128.25
0
LINE
8
0
10
134.25
20
-111.25
11
151.75
21
-111.25
0
LINE
8
0
10
151.75
20
-111.25
11
151.75
21
-94.75
0
LINE
8
0
10
151.75
20
-94.75
11
134.25
21
-94.75
0
LINE
8
0
10
134.25
20
-94.75
11
134.25
21
-111.25
0
LINE
8
0
10
152.25
20
-139.75
11
169.75
21
-139.75
0
LINE
8
0
10
169.75
20
-139.75
11
169.75
21
-123.25
0
LINE
8
0
10
169.75
20
-123.25
11
152.25
21
-123.25
0
LINE
8
0
10
152.25
20
-123.25
11
152.25
21
-139.75
0
LINE
8
0
10
152.25
20
-122.75
11
169.75
21
-122.75
0
LINE
8
0
10
169.75
20
-122.75
11
169.75
21
-106.25
0
LINE
8
0
10
169.75
20
-106.25
11
152.25
21
-106.25
0
LINE
8
0
10
152.25
20
-106.25
11
152.25
21
-122.75
0
LINE
8
0
10
152.25
20
-105.75
11
169.75
21
-105.75
0
LINE
8
0
10
169.75
20
-105.75
11
169.75
21
-89.25
0
LINE
8
0
10
169.75
20
-89.25
11
152.25
21
-89.25
0
LINE
8
0
10
152.25
20
-89.25
11
152.25
21
-105.75
0
LINE
8
0
10
170.25
20
-145.25
11
187.75
21
-145.25
0
LINE
8
0
10
187.75
20
-145.25
11
187.75
21
-128.75
0
LINE
8
0
10
187.75
20
-128.75
11
170.25
21
-128.75
0
LINE
8
0
10
170.25
20
-128.75
11
170.25
21
-145.25
0
LINE
8
0
10
170.25
20
-128.25
11
187.75
21
-128.25
0
LINE
8
0
10
187.75
20
-128.25
11
187.75
21
-111.75
0
LINE
8
0
10
187.75
20
-111.75
11
170.25
21
-111.75
0
LINE
8
0
10
170.25
20
-111.75
11
170.25
21
-128.25
0
LINE
8
0
10
170.25
20
-111.25
11
187.75
21
-111.25
0
LINE
8
0
10
187.75
20
-111.25
11
187.75
21
-94.75
0
LINE
8
0
10
187.75
20
-94.75
11
170.25
21
-94.75
0
LINE
8
0
10
170.25
20
-94.75
11
170.25
21
-111.25
0
LINE
8
0
10
188.25
20
-147.75
11
205.75
21
-147.75
0
LINE
8
0
10
205.75
20
-147.75
11
205.75
21
-131.25
0
LINE
8
0
10
205.75
20
-131.25
11
188.25
21
-131.25
0
LINE
8
0
10
188.25
20
-131.25
11
188.25
21
-147.75
0
LINE
8
0
10
188.25
20
-130.75
11
205.75
21
-130.75
0
LINE
8
0
10
205.75
20
-130.75
11
205.75
21
-114.25
0
LINE
8
0
10
205.75
20
-114.25
11
188.25
21
-114.25
0
LINE
8
0
10
188.25
20
-114.25
11
188.25
21
-130.75
0
LINE
8
0
10
188.25
20
-113.75
11
205.75
21
-113.75
0
LINE
8
0
10
205.75
20
-113.75
11
205.75
21
-97.25
0
LINE
8
0
10
205.75
20
-97.25
11
188.25
21
-97.25
0
LINE
8
0
10
188.25
20
-97.25
11
188.25
21
-113.75
0
LINE
8
0
10
187.75
20
-157.45
11
170.25
21
-157.45
0
LINE
8
0
10
170.25
20
-157.45
11
170.25
21
-173.95
0
LINE
8
0
10
170.25
20
-173.95
11
187.75
21
-173.95
0
LINE
8
0
10
187.75
20
-173.95
11
187.75
21
-157.45
0
LINE
8
0
10
205.75
20
-157.45
11
188.25
21
-157.45
0
LINE
8
0
10
188.25
20
-157.45
11
188.25
21
-173.95
0
LINE
8
0
10
188.25
20
-173.95
11
205.75
21
-173.95
0
LINE
8
0
10
205.75
20
-173.95
11
205.75
21
-157.45
0
ENDSEC
0
EOF